<svg width="982" height="428" xmlns="http://www.w3.org/2000/svg">
 <!-- Created with Method Draw - http://github.com/duopixel/Method-Draw/ -->

 <g>
  <title>background</title>
  <rect fill="#fff" id="canvas_background" height="430" width="984" y="-1" x="-1"/>
  <g display="none" overflow="visible" y="0" x="0" height="100%" width="100%" id="canvasGrid">
   <rect fill="url(#gridpattern)" stroke-width="0" y="0" x="0" height="100%" width="100%"/>
  </g>
 </g>
 <g>
  <title>Layer 1</title>
  <defs>
   <style>.cls-1,.cls-2{fill:#191717;}.cls-1{fill-rule:evenodd;}</style>
  </defs>
  <g id="svg_16">
   <g transform="matrix(1.3952594140484962,0,0,1.3952594140484962,0,0) " data-name="Layer 2" id="svg_5">
    <g data-name="Layer 1" id="svg_6">
     <path id="svg_8" d="m351.935837,94.480812a60.39,60.39 0 0 0 -19.09,117.69c3,0.56 4.12,-1.31 4.12,-2.91c0,-1.44 -0.05,-6.19 -0.08,-11.24c-16.8,3.65 -20.34,-7.12 -20.34,-7.12c-2.75,-7 -6.71,-8.84 -6.71,-8.84c-5.48,-3.75 0.41,-3.67 0.41,-3.67c6.07,0.43 9.26,6.22 9.26,6.22c5.39,9.23 14.13,6.57 17.57,5c0.55,-3.9 2.11,-6.56 3.84,-8.07c-13.37,-1.51 -27.52,-6.69 -27.52,-29.83a23.35,23.35 0 0 1 6.23,-16.23c-0.63,-1.52 -2.7,-7.66 0.58,-16c0,0 5.07,-1.62 16.61,6.19a57.36,57.36 0 0 1 30.25,0c11.48,-7.77 16.59,-6.19 16.59,-6.19c3.28,8.32 1.22,14.46 0.59,16a23.34,23.34 0 0 1 6.21,16.21c0,23.2 -14.12,28.3 -27.57,29.8c2.16,1.87 4.09,5.55 4.09,11.18c0,8.08 -0.06,14.59 -0.06,16.57c0,1.61 1.08,3.49 4.14,2.9a60.39,60.39 0 0 0 -19.12,-117.66z" class="cls-1"/>
     <path id="svg_9" d="m314.415837,181.180812c-0.13,0.3 -0.6,0.39 -1,0.19s-0.69,-0.61 -0.55,-0.91s0.61,-0.39 1,-0.19s0.69,0.61 0.54,0.91l0.01,0z" class="cls-2"/>
     <path id="svg_10" d="m316.865837,183.910812c-0.29,0.27 -0.85,0.14 -1.24,-0.28a0.92,0.92 0 0 1 -0.17,-1.25c0.3,-0.27 0.84,-0.14 1.24,0.28s0.47,1 0.17,1.25z" class="cls-2"/>
     <path id="svg_11" d="m319.245837,187.390812c-0.37,0.26 -1,0 -1.35,-0.52s-0.37,-1.18 0,-1.44s1,0 1.35,0.51s0.37,1.19 0,1.45z" class="cls-2"/>
     <path id="svg_12" d="m322.545837,190.750812a1.13,1.13 0 0 1 -1.59,-0.27c-0.53,-0.49 -0.68,-1.18 -0.34,-1.54s1,-0.27 1.56,0.23s0.68,1.18 0.33,1.54l0.04,0.04z" class="cls-2"/>
     <path id="svg_13" d="m327.005837,192.700812c-0.15,0.47 -0.82,0.69 -1.51,0.49s-1.13,-0.76 -1,-1.24s0.82,-0.7 1.51,-0.49s1.13,0.76 1,1.24z" class="cls-2"/>
     <path id="svg_14" d="m331.945837,193.060812c0,0.5 -0.56,0.91 -1.28,0.92s-1.3,-0.38 -1.31,-0.88s0.56,-0.91 1.29,-0.92s1.3,0.39 1.3,0.88z" class="cls-2"/>
     <path id="svg_15" d="m336.545837,192.280812c0.09,0.49 -0.41,1 -1.12,1.12s-1.35,-0.17 -1.44,-0.66s0.42,-1 1.12,-1.12s1.35,0.17 1.44,0.66z" class="cls-2"/>
    </g>
   </g>
  </g>
 </g>
</svg>